<svg width="960" height="540" viewBox="0 0 960 540" fill="none" xmlns="http://www.w3.org/2000/svg">
  <rect width="960" height="540" rx="28" fill="#0F172A"/>
  <rect x="36" y="32" width="888" height="476" rx="20" fill="#111827" stroke="#1E293B" stroke-width="2"/>
  <rect x="68" y="70" width="240" height="120" rx="16" fill="#1E293B"/>
  <rect x="330" y="70" width="240" height="120" rx="16" fill="#1E293B"/>
  <rect x="592" y="70" width="240" height="120" rx="16" fill="#1E293B"/>
  <rect x="68" y="218" width="764" height="40" rx="12" fill="#0B1120"/>
  <rect x="68" y="274" width="764" height="40" rx="12" fill="#0B1120"/>
  <rect x="68" y="330" width="764" height="40" rx="12" fill="#0B1120"/>
  <rect x="68" y="386" width="520" height="40" rx="12" fill="#0B1120"/>
  <circle cx="110" cy="238" r="10" fill="#22C55E"/>
  <circle cx="110" cy="294" r="10" fill="#3B82F6"/>
  <circle cx="110" cy="350" r="10" fill="#3B82F6"/>
  <circle cx="110" cy="406" r="10" fill="#94A3B8"/>
  <rect x="94" y="108" width="92" height="8" rx="4" fill="#334155"/>
  <rect x="94" y="128" width="140" height="10" rx="5" fill="#475569"/>
  <rect x="356" y="108" width="92" height="8" rx="4" fill="#334155"/>
  <rect x="356" y="128" width="160" height="10" rx="5" fill="#475569"/>
  <rect x="618" y="108" width="92" height="8" rx="4" fill="#334155"/>
  <rect x="618" y="128" width="150" height="10" rx="5" fill="#475569"/>
</svg>
